# Made in Blockbench 4.9.3
mtllib cerceve.mtl

o cuboid
v 0.625 2.875 0.09375
v 0.625 2.875 -0.09375
v 0.625 0 0.09375
v 0.625 0 -0.09375
v 0.5 2.875 0.09375
v 0.5 2.875 -0.09375
v 0.5 0 0.09375
v 0.5 0 -0.09375
v 0.59375 2.96875 0.09375
v 0.59375 2.96875 -0.09375
v 0.5 3 0.09375
v 0.5 3 -0.09375
v -0.5 3 0.09375
v -0.5 3 -0.09375
v -0.5 2.875 -0.09375
v -0.5 2.875 0.09375
v -0.59375 2.96875 0.09375
v -0.59375 2.96875 -0.09375
v -0.625 2.875 -0.09375
v -0.625 2.875 0.09375
v -0.625 0 0.09375
v -0.625 0 -0.09375
v -0.5 0 -0.09375
v -0.5 0 0.09375
vt 0.109375 0.9127953125
vt 0.0625 0.9127953125
vt 0.0625 0.1940453125
vt 0.109375 0.1940453125
vt 0.234375 0.21875
vt 0.234375 0.9375
vt 0.1875 0.9375
vt 0.1875 0.21875
vt 0.9375 0.953125
vt 0.9622062499999999 0.953125
vt 0.96220625 1
vt 0.9375 1
vt 0.484375 0.890625
vt 0.484375 0.9375
vt 0.453125 0.9375
vt 0.453125 0.890625
vt 0.3125 0.25
vt 0.3125 0.96875
vt 0.28125 0.96875
vt 0.28125 0.25
vt 0.359375 0.96875
vt 0.328125 0.96875
vt 0.328125 0.25
vt 0.359375 0.25
vt 0.3046875 0.9921875
vt 0.28125 1
vt 0.28125 0.96875
vt 0.3125 0.96875
vt 0.109375 0.9375
vt 0.0625 0.9375
vt 0.0625 0.9127953125
vt 0.109375 0.9127953125
vt 0.359375 1
vt 0.3359375 0.9921875
vt 0.328125 0.96875
vt 0.359375 0.96875
vt 0.171875 0.9375
vt 0.125 0.9375
vt 0.125 0.9127953125
vt 0.171875 0.9127953125
vt 0.6875 1
vt 0.6875 0.953125
vt 0.9375 0.953125
vt 0.9375 1
vt 0.609375 0.96875
vt 0.609375 1
vt 0.359375 1
vt 0.359375 0.96875
vt 0.65625 0.921875
vt 0.65625 0.875
vt 0.90625 0.875
vt 0.90625 0.921875
vt 0.03125 1
vt 0.03125 0.96875
vt 0.28125 0.96875
vt 0.28125 1
vt 0.6627937500000001 1
vt 0.66279375 0.953125
vt 0.6875 0.953125
vt 0.6875 1
vt 0.640625 0.96875
vt 0.6328125 0.9921875
vt 0.609375 1
vt 0.609375 0.96875
vt 0.453125 0.875
vt 0.453125 0.828125
vt 0.484375 0.828125
vt 0.484375 0.875
vt 0.0078125 0.9921875
vt 0 0.96875
vt 0.03125 0.96875
vt 0.03125 1
vt 0.125 0.1940453125
vt 0.171875 0.1940453125
vt 0.171875 0.9127953125
vt 0.125 0.9127953125
vt 0.609375 0.25
vt 0.640625 0.25
vt 0.640625 0.96875
vt 0.609375 0.96875
vt 0.390625 0.21875
vt 0.4375 0.21875
vt 0.4375 0.9375
vt 0.390625 0.9375
vt 0 0.25
vt 0.03125 0.25
vt 0.03125 0.96875
vt 0 0.96875
vn 1 0 0
vn -1 0 0
vn 0.316227766016838 0.948683298050514 0
vn 0 -1 0
vn 0 0 1
vn 0 0 -1
vn 0 0 1
vn 0.948683298050514 0.316227766016838 0
vn 0 0 -1
vn -0.948683298050514 0.316227766016838 0
vn 0 1 0
vn 0 0 -1
vn 0 -1 0
vn 0 0 1
vn -0.316227766016838 0.948683298050514 0
vn 0 0 -1
vn 0 -1 0
vn 0 0 1
vn -1 0 0
vn 0 0 -1
vn 1 0 0
vn 0 0 1
usemtl m_b2bcd0a1-e838-d33b-8732-012bef8e991e
f 2/1/1 1/2/1 3/3/1 4/4/1
f 7/5/2 5/6/2 6/7/2 8/8/2
f 11/9/3 9/10/3 10/11/3 12/12/3
f 4/13/4 3/14/4 7/15/4 8/16/4
f 3/17/5 1/18/5 5/19/5 7/20/5
f 6/21/6 2/22/6 4/23/6 8/24/6
f 9/25/7 11/26/7 5/27/7 1/28/7
f 10/29/8 9/30/8 1/31/8 2/32/8
f 12/33/9 10/34/9 2/35/9 6/36/9
f 17/37/10 18/38/10 19/39/10 20/40/10
f 14/41/11 13/42/11 11/43/11 12/44/11
f 15/45/12 14/46/12 12/47/12 6/48/12
f 16/49/13 15/50/13 6/51/13 5/52/13
f 13/53/14 16/54/14 5/55/14 11/56/14
f 18/57/15 17/58/15 13/59/15 14/60/15
f 19/61/16 18/62/16 14/63/16 15/64/16
f 21/65/17 22/66/17 23/67/17 24/68/17
f 17/69/18 20/70/18 16/71/18 13/72/18
f 22/73/19 21/74/19 20/75/19 19/76/19
f 23/77/20 22/78/20 19/79/20 15/80/20
f 24/81/21 23/82/21 15/83/21 16/84/21
f 21/85/22 24/86/22 16/87/22 20/88/22